<?xml version="1.0" standalone="no"?>
<!DOCTYPE svg PUBLIC "-//W3C//DTD SVG 20010904//EN"
 "http://www.w3.org/TR/2001/REC-SVG-20010904/DTD/svg10.dtd">
<svg version="1.0" xmlns="http://www.w3.org/2000/svg"
 width="640.000000pt" height="640.000000pt" viewBox="0 0 640.000000 640.000000"
 preserveAspectRatio="xMidYMid meet">
<metadata>
Created by potrace 1.16, written by Peter Selinger 2001-2019
</metadata>
<g transform="translate(0.000000,640.000000) scale(0.100000,-0.100000)"
fill="#000000" stroke="none">
<path d="M2497 6389 c10 -10 9 -16 -3 -30 -29 -32 -10 -46 20 -16 15 15 40 29
54 31 15 2 19 1 10 -1 -37 -9 -19 -29 22 -25 25 3 40 0 40 -7 0 -6 -10 -12
-22 -12 -21 -1 -21 -2 -3 -6 11 -3 23 -10 27 -16 4 -7 40 -12 80 -14 40 -1 80
-4 88 -7 22 -7 96 -17 178 -22 39 -3 72 -10 72 -15 0 -5 17 -6 38 -3 59 10 93
8 103 -7 4 -7 11 -10 15 -6 18 18 -134 97 -256 134 -76 23 -106 27 -280 30
-158 4 -193 2 -183 -8z"/>
<path d="M3040 6095 c0 -12 -14 -15 -65 -15 l-65 0 0 -40 c0 -22 5 -40 10 -40
6 0 10 -18 10 -40 0 -35 3 -40 23 -40 12 0 31 -7 41 -15 31 -23 46 -18 46 15
0 28 2 30 40 30 36 0 40 3 40 25 0 14 5 25 10 25 15 0 12 36 -3 49 -8 6 -29
13 -48 15 -28 3 -33 7 -31 25 2 11 1 21 -2 21 -3 0 -6 -7 -6 -15z"/>
<path d="M2294 5343 c-12 -9 -34 -11 -69 -7 -60 7 -118 -17 -155 -63 -12 -15
-27 -28 -33 -29 -36 -1 -58 -17 -55 -37 2 -18 11 -23 42 -25 44 -4 86 -27 86
-48 0 -8 10 -14 23 -14 12 0 35 -11 52 -24 25 -20 28 -26 16 -40 -7 -9 -20
-16 -27 -16 -7 0 -11 -6 -8 -14 5 -14 -4 -17 -136 -34 -36 -5 -88 -19 -114
-31 -27 -11 -54 -21 -61 -21 -7 0 -24 -9 -38 -20 -14 -11 -30 -20 -37 -20 -12
0 -49 -39 -50 -52 0 -5 6 -8 14 -8 7 0 16 -9 19 -21 4 -15 -1 -22 -19 -29 -35
-14 -30 -17 24 -16 52 0 152 -23 152 -36 0 -4 6 -8 14 -8 7 0 38 -7 67 -16 30
-9 59 -18 66 -20 9 -2 9 -9 0 -28 -13 -29 -27 -34 -27 -11 0 8 -4 15 -10 15
-16 0 -11 -27 6 -34 9 -3 26 -6 39 -6 12 0 39 -7 59 -15 43 -18 89 -12 116 15
12 12 33 20 52 20 83 0 103 6 123 38 11 17 28 31 38 32 15 0 18 7 15 38 -2 20
-7 40 -12 43 -4 4 9 12 30 19 62 18 144 61 144 75 0 6 11 17 25 23 14 7 28 19
31 27 4 8 17 15 30 15 13 0 33 5 44 10 11 6 29 14 40 20 23 12 70 13 70 3 0
-9 48 -33 64 -33 6 0 20 -15 31 -32 11 -18 28 -44 38 -58 9 -14 20 -33 23 -42
4 -10 10 -18 15 -18 5 0 6 -7 3 -15 -4 -8 -14 -15 -24 -15 -11 0 -22 -4 -25
-10 -3 -5 3 -10 14 -10 12 0 21 -6 21 -14 0 -13 26 -41 81 -89 14 -12 34 -39
44 -59 14 -31 23 -38 46 -38 18 0 32 -7 39 -21 7 -12 18 -18 26 -15 9 3 29 -1
47 -10 20 -11 32 -13 35 -6 2 7 11 8 25 2 51 -20 64 -23 95 -21 17 2 47 -2 65
-7 52 -17 140 -24 132 -12 -3 5 -3 10 2 10 4 0 16 7 26 14 16 12 17 17 5 38
-16 29 -26 36 -47 33 -9 -1 -10 0 -3 2 10 4 10 8 1 19 -14 18 -15 17 46 36 42
13 51 13 63 1 8 -8 28 -13 46 -11 31 3 31 4 28 52 -6 84 -55 156 -132 193 -56
26 -78 51 -76 83 1 24 4 25 56 25 30 -1 78 -5 106 -9 47 -8 52 -7 57 13 4 17
-9 36 -59 86 -35 36 -70 65 -77 65 -7 0 -29 14 -50 31 -31 25 -40 29 -52 19
-12 -10 -15 -9 -15 7 0 16 -5 19 -30 15 -22 -3 -30 -1 -28 9 2 7 -6 14 -17 16
-11 2 -30 9 -42 15 -11 6 -27 8 -34 6 -8 -3 -33 1 -57 9 -32 9 -49 10 -64 2
-14 -7 -29 -7 -50 0 -38 13 -85 14 -93 2 -12 -21 -62 -38 -80 -28 -22 12 -165
1 -179 -13 -6 -6 -18 -10 -28 -10 -10 0 -18 -6 -18 -14 0 -11 -15 -9 -72 10
-39 14 -77 23 -84 20 -6 -2 -22 6 -35 20 -12 13 -28 24 -36 24 -7 0 -13 7 -13
15 0 21 -46 38 -70 25 -13 -7 -21 -5 -31 6 -8 10 -23 14 -43 11 -31 -4 -90 15
-101 33 -9 14 -79 9 -101 -7z m-165 -390 c-6 -7 -22 -13 -34 -13 -13 0 -25 -6
-28 -13 -2 -7 -32 -18 -66 -26 -33 -7 -61 -17 -61 -22 0 -5 -7 -9 -15 -9 -8 0
-40 -14 -70 -30 -59 -32 -91 -32 -57 0 11 11 22 23 23 28 9 21 103 74 156 86
75 19 167 18 152 -1z"/>
<path d="M2784 4269 c-3 -5 -11 -8 -18 -7 -11 3 -31 -6 -126 -53 -19 -9 -54
-23 -78 -30 -23 -7 -40 -14 -37 -17 3 -3 -13 -13 -35 -23 -51 -23 -63 -61 -29
-93 30 -27 73 -46 104 -46 23 0 45 -24 45 -50 0 -6 -16 -20 -35 -31 -19 -12
-35 -27 -35 -35 0 -9 -11 -14 -29 -14 -16 0 -31 -6 -35 -15 -3 -8 -12 -15 -20
-15 -8 0 -16 -5 -18 -11 -2 -6 -18 -13 -36 -15 -18 -2 -42 -9 -53 -14 -14 -8
-29 -8 -52 1 -43 15 -112 -3 -120 -31 -3 -11 -13 -23 -24 -26 -65 -22 -101
-45 -113 -73 -7 -17 -17 -31 -22 -31 -13 0 -22 31 -11 39 6 3 13 22 17 41 16
85 23 136 19 147 -8 20 -35 24 -60 8 -13 -9 -33 -13 -43 -10 -11 4 -20 3 -20
-2 0 -5 -18 -19 -40 -33 -28 -17 -40 -32 -40 -47 0 -16 -6 -23 -19 -23 -14 0
-21 -10 -26 -37 -4 -25 -3 -39 5 -41 7 -3 5 -10 -6 -23 -16 -18 -16 -20 0 -38
13 -15 17 -32 14 -69 -3 -45 0 -51 29 -76 35 -30 43 -25 53 34 4 29 11 37 39
46 18 6 38 18 43 27 21 38 28 12 28 -107 0 -117 -1 -124 -24 -149 -15 -17 -31
-24 -40 -21 -12 5 -16 -1 -16 -21 0 -26 -47 -77 -76 -81 -8 -1 -27 -16 -44
-32 -16 -17 -43 -36 -60 -44 -17 -7 -33 -21 -36 -31 -3 -11 -12 -16 -20 -13
-18 7 -61 -34 -46 -43 7 -4 -3 -21 -24 -44 -19 -20 -32 -37 -27 -37 12 0 10
-74 -2 -82 -6 -5 -5 -8 3 -8 6 0 12 -4 12 -10 0 -18 -22 -10 -27 10 -3 11 -9
17 -15 14 -10 -7 23 -53 96 -132 90 -98 99 -104 401 -287 72 -43 166 -101 210
-129 44 -29 91 -57 105 -63 14 -6 50 -29 80 -52 30 -23 66 -44 80 -48 47 -12
95 -43 155 -100 100 -96 128 -136 179 -259 l49 -117 24 27 c12 15 23 37 23 49
0 49 60 230 87 264 15 19 35 46 44 59 19 29 87 84 104 84 7 0 18 6 24 14 6 7
40 28 75 45 47 23 79 49 118 94 29 34 61 71 71 82 33 35 107 142 107 154 0 16
-17 13 -24 -4 -3 -8 -10 -15 -16 -15 -7 0 -8 6 0 19 5 11 10 32 10 46 0 19 4
26 13 22 8 -3 20 -1 28 5 11 8 10 9 -3 4 -26 -8 -22 7 7 33 l26 22 20 -47 c12
-26 19 -59 17 -75 -3 -16 0 -30 5 -32 13 -4 16 -110 3 -120 -8 -6 -7 -10 1
-14 8 -3 11 -14 7 -28 -3 -12 -1 -26 5 -29 13 -8 3 -185 -11 -202 -5 -8 -3
-14 7 -17 9 -4 12 -13 8 -23 -3 -9 -2 -19 3 -23 10 -7 44 -65 44 -75 0 -4 -10
-1 -22 6 -13 7 -26 11 -30 10 -4 -1 -5 4 -2 11 2 7 -6 22 -18 33 -18 15 -20
16 -9 1 17 -22 6 -37 -12 -15 -17 21 -59 48 -74 48 -23 0 -14 -17 15 -29 23
-10 102 -91 88 -91 -2 0 -23 18 -47 39 -23 22 -55 45 -70 52 -16 6 -29 15 -29
19 0 7 -55 40 -67 40 -1 0 -3 -7 -3 -15 0 -8 -4 -15 -10 -15 -12 0 -4 -43 26
-139 13 -41 21 -78 18 -83 -3 -4 2 -8 11 -8 28 0 5 -21 -50 -46 l-53 -23 -1
-84 c0 -47 -5 -95 -10 -108 -4 -13 -14 -79 -22 -146 -10 -95 -10 -128 -1 -148
7 -14 12 -43 13 -63 1 -20 4 -48 8 -62 6 -22 8 -23 14 -6 4 10 2 36 -4 58 -5
22 -8 42 -5 45 3 3 8 -6 12 -21 3 -14 10 -26 15 -26 5 0 9 -14 9 -31 0 -19 4
-28 11 -24 6 4 13 -2 16 -14 3 -12 10 -21 15 -21 6 0 7 -16 3 -37 -4 -27 -1
-44 9 -58 15 -20 15 -20 16 3 0 12 5 22 10 22 6 0 10 -5 10 -11 0 -7 8 -18 18
-25 10 -8 12 -13 5 -14 -8 0 -13 -15 -13 -39 0 -37 2 -39 36 -43 19 -2 37 0
40 4 3 4 9 8 13 8 10 0 1 -62 -11 -77 -7 -9 -7 -13 1 -13 6 0 11 -9 11 -19 0
-11 5 -23 10 -26 16 -10 12 -29 -10 -53 -25 -26 -27 -82 -4 -82 10 0 14 -6 11
-15 -4 -8 -2 -17 3 -20 19 -12 10 -26 -12 -21 -13 3 -17 3 -10 0 6 -3 12 -20
13 -37 1 -31 1 -31 9 -7 6 15 7 -3 3 -47 -5 -61 -3 -74 11 -79 18 -7 22 -50 4
-56 -7 -3 -8 -9 -3 -19 13 -20 16 -171 3 -186 -6 -7 -7 -21 -3 -30 3 -10 6
-55 6 -100 -1 -77 1 -83 20 -83 20 0 21 3 13 88 -7 80 -8 543 -2 602 2 18 15
31 48 48 40 20 41 22 17 22 -27 0 -41 29 -14 31 6 0 3 4 -8 9 -11 5 -14 9 -7
9 6 1 12 6 12 12 0 6 9 22 20 36 24 30 26 47 5 39 -9 -3 -15 0 -15 9 0 8 3 15
8 15 13 0 41 59 29 63 -6 2 -1 16 12 34 13 17 21 37 19 45 -3 7 -14 -5 -27
-30 -12 -23 -20 -46 -17 -50 2 -4 -12 -25 -31 -47 -23 -27 -33 -33 -30 -20 3
11 8 43 12 70 4 28 22 120 40 205 25 118 32 170 28 220 -5 69 -42 224 -68 286
-17 41 -14 54 10 34 8 -7 20 -10 27 -7 10 3 13 -17 15 -84 2 -93 17 -139 53
-162 26 -15 26 -52 0 -119 -15 -39 -17 -55 -8 -65 9 -11 13 -12 19 -1 6 9 9 7
9 -7 1 -19 1 -19 12 -1 17 29 3 245 -22 350 -12 48 -19 90 -16 93 10 10 66
-194 85 -308 11 -64 25 -181 31 -260 6 -79 17 -227 25 -329 8 -102 22 -293 31
-425 8 -132 19 -276 22 -320 l7 -80 1193 -3 1192 -2 -1 827 c-1 456 -3 820 -6
811 -2 -10 -8 -18 -11 -18 -4 0 -30 -20 -57 -45 -36 -32 -61 -46 -90 -50 -53
-7 -99 6 -103 31 -2 10 -6 26 -9 34 -3 8 -7 33 -8 55 -1 22 -5 82 -10 132 -7
83 -6 93 9 93 9 0 16 4 16 10 0 6 -17 8 -37 6 -33 -4 -35 -3 -15 6 12 6 22 20
22 32 0 11 -18 83 -41 159 -22 77 -38 145 -35 152 6 17 100 38 151 33 28 -2
43 -9 50 -24 5 -11 18 -28 27 -38 16 -16 18 -15 31 11 13 24 13 30 1 41 -8 7
-14 32 -14 55 0 45 -20 111 -38 129 -7 7 -12 27 -12 46 0 31 2 34 25 30 14 -3
25 -1 25 4 0 14 -82 48 -117 48 -18 0 -47 9 -65 20 -28 17 -43 19 -98 14 -81
-8 -103 -25 -94 -71 5 -28 3 -37 -15 -49 -11 -8 -21 -21 -21 -28 0 -24 -29
-26 -55 -3 -13 12 -47 38 -75 57 -41 28 -57 49 -84 105 -60 123 -58 151 4 67
37 -49 82 -93 89 -86 2 2 -3 12 -12 22 -10 10 -17 21 -17 24 0 2 -18 24 -41
48 -48 50 -59 76 -59 136 0 27 -4 43 -10 39 -6 -4 -7 6 -4 27 5 22 3 30 -3 23
-11 -11 -25 -197 -14 -191 3 2 7 -7 7 -20 1 -13 16 -53 33 -90 23 -49 27 -65
15 -60 -9 3 -20 6 -25 6 -6 0 -8 4 -4 9 3 5 0 13 -6 16 -6 4 -13 -2 -16 -14
-5 -20 -6 -20 -24 3 -11 14 -24 51 -30 83 -6 32 -15 63 -19 68 -5 6 -4 30 1
54 11 48 5 153 -10 194 -6 15 -12 27 -14 27 -2 0 -3 -32 -3 -71 1 -58 -2 -73
-18 -84 -14 -11 -16 -18 -8 -28 8 -10 7 -20 -3 -40 -8 -15 -14 -30 -14 -33 1
-3 -3 -9 -7 -12 -4 -4 -4 9 1 28 9 44 7 104 -5 133 -5 12 -9 16 -9 8 -1 -7 -7
-11 -16 -7 -8 3 -15 1 -15 -4 0 -21 -20 -9 -21 13 -1 21 -1 21 -9 -3 -4 -14
-9 -41 -10 -60 l-2 -35 -13 30 c-8 17 -14 23 -15 15 0 -12 -3 -11 -14 3 -11
14 -15 15 -19 5 -4 -8 -6 -7 -6 5 -1 21 -17 22 -25 1 -4 -10 -14 -14 -25 -11
-12 3 -22 -1 -26 -11 -5 -14 -7 -14 -15 -2 -7 11 -10 0 -11 -35 l0 -50 -15 39
c-19 52 -22 54 -40 28 -8 -12 -20 -22 -27 -22 -6 0 -22 -12 -34 -26 -19 -22
-22 -34 -17 -66 4 -22 2 -49 -3 -61 -19 -42 -35 -99 -29 -104 3 -4 6 -1 6 6 0
7 4 10 10 6 17 -10 43 58 48 128 4 62 12 80 18 41 5 -32 15 -46 29 -40 33 12
3 -118 -37 -158 -22 -22 -26 -31 -16 -37 9 -6 8 -9 -5 -15 -9 -3 -24 -1 -32 6
-19 16 -19 0 -1 -26 8 -10 25 -19 38 -19 17 0 28 -11 45 -47 12 -25 27 -49 32
-53 6 -3 11 -14 11 -24 0 -10 9 -26 19 -35 18 -17 22 -17 54 -1 41 19 103 26
132 15 49 -20 61 -24 83 -26 19 -2 22 1 16 18 -5 18 -1 16 27 -11 28 -26 32
-33 19 -41 -13 -8 -12 -10 3 -10 9 0 17 -5 17 -11 0 -6 -9 -8 -20 -4 -24 8
-26 -1 -4 -23 10 -10 12 -18 6 -20 -19 -6 -1 -32 46 -64 l45 -31 -5 27 -5 27
23 -22 c12 -11 21 -26 18 -33 -5 -12 40 -36 69 -36 17 0 17 2 -3 30 -13 18
-26 27 -35 23 -9 -3 -15 1 -15 10 0 8 -6 18 -12 21 -10 5 -10 7 0 12 13 6 -59
106 -120 167 -38 39 -35 54 12 68 22 7 45 18 51 26 6 7 22 13 35 13 16 0 30
10 42 28 13 21 22 27 37 22 77 -26 74 -20 46 -82 -46 -103 -61 -138 -61 -148
0 -6 14 -16 30 -21 31 -11 31 -9 33 -104 0 -16 0 -42 -1 -57 l-2 -27 -147 5
c-82 2 -160 4 -175 4 -63 0 -86 1 -148 3 -91 4 -190 17 -222 29 l-27 10 30 40
c44 61 37 104 -34 206 -19 29 -41 65 -48 82 -8 16 -17 30 -21 30 -5 0 -8 5 -8
11 0 8 5 8 15 -1 8 -7 15 -19 15 -28 0 -8 2 -13 5 -11 4 5 -8 97 -20 149 -5
21 -4 22 4 5 8 -17 10 -18 10 -2 1 14 -9 39 -27 67 -2 2 -8 -2 -13 -10 -8 -11
-9 -7 -4 14 5 25 4 28 -8 17 -12 -9 -16 -8 -21 4 -3 9 -11 13 -17 10 -11 -7
-3 -62 11 -80 4 -5 11 -41 15 -80 5 -63 5 -68 -9 -51 -8 10 -18 43 -22 73 -4
36 -9 50 -15 42 -6 -10 -9 -8 -9 8 0 38 -18 35 -42 -7 -13 -22 -29 -38 -35
-35 -7 2 -20 -7 -29 -21 -18 -26 -29 -23 -36 11 -2 11 -5 -6 -5 -37 -1 -52 -6
-62 -56 -131 -58 -79 -77 -128 -57 -152 24 -29 -9 -15 -41 17 -18 18 -37 32
-41 30 -5 -1 -19 7 -31 19 -12 11 -34 28 -49 37 -16 9 -28 20 -28 24 0 4 -7 8
-15 8 -8 0 -15 6 -15 13 -1 17 -48 50 -65 43 -8 -3 -23 6 -35 21 -15 19 -31
27 -53 27 -19 1 -32 6 -32 14 0 7 -6 16 -13 21 -7 4 -12 14 -10 22 2 9 -8 15
-29 17 -24 2 -33 8 -33 21 0 18 -42 61 -60 61 -6 0 -10 6 -10 14 0 8 -11 17
-25 20 -14 4 -29 14 -32 24 -10 23 -44 51 -65 52 -10 0 -18 7 -18 15 0 8 -4
15 -10 15 -5 0 -10 7 -10 15 0 15 -35 29 -60 23 -8 -2 -19 7 -24 19 -7 14 -22
23 -49 27 -29 5 -36 10 -29 19 5 6 12 22 15 35 4 17 1 22 -15 22 -20 0 -20 1
-5 18 23 25 21 35 -3 29 -11 -3 -18 -1 -15 3 10 17 -7 59 -26 65 -10 4 -19 15
-19 26 0 10 -5 19 -11 19 -7 0 -9 13 -5 38 13 75 12 151 -2 157 -8 3 -17 3
-22 0 -4 -3 -13 1 -19 9 -9 11 -9 17 2 27 7 8 19 29 27 47 10 27 11 35 1 42
-10 6 -10 12 2 31 12 19 13 38 7 94 -5 39 -12 86 -17 105 -9 38 -71 129 -89
130 -6 0 -19 9 -29 20 -10 11 -28 20 -40 20 -13 0 -25 7 -29 15 -3 8 -17 20
-31 25 -14 5 -25 14 -25 20 0 5 -9 10 -21 10 -12 0 -23 8 -26 20 -3 11 -14 20
-24 20 -10 0 -26 11 -35 25 -10 15 -26 25 -40 25 -15 0 -24 6 -24 15 0 8 7 15
15 15 8 0 15 5 15 10 0 6 12 16 28 23 15 6 29 14 32 17 14 15 62 33 87 33 15
-1 53 -10 84 -21 53 -20 99 -20 99 -1 0 5 -12 14 -27 20 -20 7 -23 13 -15 21
16 16 15 28 -1 28 -24 0 -63 49 -104 130 l-18 35 -3 -45 c-4 -53 -18 -72 -35
-50 -7 9 -49 35 -94 58 -85 44 -77 42 -290 57 -47 3 -66 1 -78 -11 -9 -10 -15
-11 -15 -4 0 7 -6 10 -14 7 -7 -3 -19 0 -25 6 -14 14 -39 18 -47 6z m-8 -465
c13 -3 24 -10 24 -15 0 -5 8 -9 19 -9 19 0 51 -29 35 -32 -5 0 -40 -2 -79 -3
-102 -3 -199 -20 -247 -45 -114 -58 -109 -57 -132 -34 -21 21 -20 31 5 37 16
4 20 12 17 30 -5 23 -3 24 55 25 45 1 62 5 72 19 10 13 37 21 97 29 45 6 89
10 96 8 8 -2 25 -7 38 -10z m409 -3 c3 -5 22 -15 43 -22 20 -6 47 -20 59 -31
12 -12 29 -18 37 -15 10 4 13 1 9 -9 -3 -8 1 -14 10 -14 10 0 16 -12 19 -35 2
-19 2 -35 0 -35 -2 0 -22 13 -45 29 -23 15 -57 36 -76 46 -42 21 -150 26 -208
10 -23 -7 -44 -11 -46 -9 -2 2 -28 8 -58 13 l-54 9 60 1 c42 1 69 7 90 21 17
11 37 20 46 20 9 0 19 7 23 15 6 17 81 21 91 6z m-637 -302 c31 0 89 -7 129
-15 72 -16 241 -15 520 2 96 5 102 5 115 -15 8 -13 23 -21 40 -21 39 0 59 -10
69 -36 4 -13 14 -24 22 -24 7 0 20 -13 30 -29 9 -15 30 -34 47 -41 16 -7 30
-15 31 -19 0 -3 2 -17 5 -30 3 -17 -4 -32 -24 -52 -15 -15 -37 -44 -47 -63
-11 -20 -23 -36 -28 -36 -4 0 -20 -11 -35 -25 -16 -15 -33 -23 -44 -19 -28 9
-23 -34 7 -58 19 -14 23 -26 19 -43 -4 -18 -1 -25 15 -30 20 -6 30 -25 13 -25
-5 0 -17 -8 -28 -19 -33 -30 -63 -42 -117 -47 -29 -3 -60 -7 -69 -10 -12 -4
-18 0 -18 10 0 9 -7 16 -16 16 -8 0 -12 5 -9 10 5 8 -10 9 -45 4 -40 -5 -53
-3 -63 9 -12 15 -67 28 -121 28 -20 0 -30 6 -33 19 -3 11 -9 20 -14 20 -5 0
-6 -6 -3 -14 3 -8 -1 -18 -8 -22 -15 -10 -96 -35 -120 -37 -9 -1 -15 -4 -12
-8 2 -3 -14 -9 -35 -12 -21 -2 -53 -15 -69 -27 -17 -13 -45 -23 -61 -24 -18
-1 -29 -6 -27 -12 5 -12 -75 -8 -84 4 -7 9 -89 49 -117 57 -13 3 -20 12 -17
19 3 7 -1 20 -9 27 -8 8 -14 37 -14 69 0 30 -6 56 -12 58 -6 2 -11 29 -11 67
0 72 -6 95 -26 95 -21 0 -20 146 1 166 8 9 15 29 15 45 0 16 6 29 13 30 6 1
19 2 27 3 8 2 26 3 40 4 16 1 29 11 35 24 9 21 58 40 78 31 4 -3 33 -4 65 -4z"/>
<path d="M2480 3291 c0 -5 -16 -8 -37 -5 -21 2 -32 1 -25 -2 10 -5 9 -9 -4
-18 -11 -9 -14 -18 -8 -27 5 -8 9 -48 10 -90 0 -42 4 -81 8 -87 7 -12 102 -6
156 10 45 14 109 11 184 -8 33 -9 71 -14 84 -11 13 2 41 0 62 -5 32 -8 42 -7
55 6 27 27 197 58 209 38 3 -5 25 -7 50 -5 26 3 46 1 50 -6 23 -36 50 16 47
90 -1 40 2 59 13 69 9 7 13 17 10 22 -4 6 0 14 7 19 18 11 -205 2 -246 -10
-54 -15 -584 5 -615 24 -5 3 -10 2 -10 -4z"/>
<path d="M3603 3880 c-3 -11 -12 -20 -19 -20 -23 0 -16 -13 21 -40 21 -15 35
-34 35 -47 0 -14 11 -27 30 -37 17 -8 30 -10 30 -5 0 5 6 9 13 9 8 0 22 9 32
20 16 18 16 20 1 35 -9 9 -16 23 -16 31 0 9 -11 14 -30 14 -22 0 -28 4 -23 15
6 18 -23 44 -50 45 -11 0 -21 -9 -24 -20z"/>
<path d="M1404 2940 c-6 -6 -24 -12 -41 -13 -17 -1 -31 -4 -31 -7 2 -22 -5
-30 -27 -30 -20 0 -25 -5 -25 -25 0 -16 -6 -25 -16 -25 -11 0 -14 -6 -9 -20 5
-17 2 -20 -25 -20 -27 0 -32 -3 -27 -20 4 -14 0 -20 -11 -21 -11 0 -12 -2 -4
-6 6 -2 12 -12 12 -20 0 -9 -6 -13 -15 -10 -24 10 -103 -35 -108 -60 -3 -17 0
-23 15 -23 16 0 17 -3 8 -20 -9 -16 -8 -20 5 -20 23 0 13 -24 -11 -28 -27 -4
-64 -24 -64 -34 0 -5 4 -7 9 -3 5 3 12 1 15 -4 4 -5 2 -12 -4 -16 -19 -12 -11
-38 10 -32 13 3 20 0 20 -9 0 -18 -32 -32 -38 -16 -2 7 -11 12 -20 12 -15 0
-15 2 -2 10 12 8 11 10 -7 10 -13 0 -23 -4 -23 -10 0 -5 -7 -10 -15 -10 -8 0
-15 -5 -15 -10 0 -6 8 -10 18 -8 11 2 18 -4 20 -19 2 -13 7 -23 12 -23 4 0 6
-9 3 -20 -3 -11 0 -20 6 -20 6 0 11 -11 11 -25 0 -21 -5 -25 -30 -25 -16 0
-30 5 -30 10 0 6 10 10 23 10 21 1 22 1 3 15 -23 17 -26 18 -45 6 -12 -8 -12
-12 2 -26 19 -19 21 -31 7 -40 -18 -11 -11 -27 10 -22 11 3 20 2 20 -2 0 -13
-42 -42 -53 -37 -8 3 -8 5 1 5 22 2 -13 31 -37 31 -14 0 -21 -6 -21 -20 0 -12
-7 -20 -17 -20 -15 0 -14 -2 3 -15 13 -10 15 -14 5 -15 -8 0 -3 -10 14 -26 28
-25 28 -27 10 -40 -22 -16 -41 -18 -50 -5 -3 5 4 12 15 16 28 9 25 25 -4 25
-27 0 -42 15 -26 25 17 10 11 26 -8 23 -11 -2 -29 9 -44 26 -17 21 -30 27 -43
23 -14 -6 -15 -10 -5 -22 6 -7 19 -11 28 -8 15 6 15 4 4 -9 -11 -14 -10 -18 4
-26 15 -9 16 -12 5 -26 -12 -14 -12 -16 3 -10 9 3 24 3 34 -1 16 -6 16 -7 0
-16 -9 -5 -15 -15 -13 -22 6 -13 -43 -40 -57 -31 -5 3 -6 14 -3 25 10 32 -37
29 -72 -4 -28 -27 -28 -33 -3 -40 11 -3 20 -10 20 -16 0 -19 -31 -12 -51 12
-10 12 -18 16 -19 10 0 -7 -7 -13 -15 -13 -8 0 -24 -8 -35 -17 -11 -10 -30
-21 -43 -24 -13 -3 -21 -12 -21 -22 2 -24 -13 -21 -19 4 -5 19 -2 22 40 35 14
4 18 34 5 34 -4 0 -13 -5 -18 -10 -14 -14 -44 -2 -38 15 6 15 83 49 92 40 4
-3 0 -10 -8 -16 -13 -8 -13 -10 0 -19 22 -14 25 -13 62 20 18 17 40 30 49 30
9 0 24 9 34 20 18 19 17 20 -3 20 -24 0 -30 25 -9 33 20 9 -12 25 -37 19 -11
-3 -18 -1 -14 3 9 10 -35 45 -56 45 -9 0 -16 -4 -16 -10 0 -5 9 -10 21 -10 14
0 19 -5 16 -14 -3 -8 1 -17 9 -20 8 -3 14 -11 14 -17 0 -7 8 -17 17 -24 16
-12 14 -15 -17 -33 -25 -16 -37 -18 -47 -10 -8 6 -16 8 -20 5 -3 -4 -12 -2
-20 4 -10 9 -10 15 -2 25 6 7 9 19 6 26 -4 8 -8 5 -12 -9 -4 -12 -14 -24 -24
-26 -14 -4 -13 -5 2 -6 15 -1 16 -5 7 -21 -8 -14 -21 -20 -46 -20 -19 0 -33
-4 -30 -9 3 -5 -13 -25 -35 -46 -22 -20 -38 -39 -34 -43 3 -4 9 -2 13 4 7 11
46 34 57 34 4 0 4 -7 1 -16 -3 -8 1 -23 10 -32 15 -14 15 -17 -2 -29 -27 -20
-46 -17 -39 7 6 20 -9 28 -20 10 -3 -5 -15 -10 -26 -10 -10 0 -19 -7 -19 -15
0 -8 6 -15 13 -15 16 0 40 -50 24 -51 -7 0 -1 -5 13 -10 23 -10 24 -11 8 -23
-23 -17 -23 -26 2 -26 26 0 16 -22 -17 -38 -27 -12 -56 -1 -34 12 18 11 13 26
-9 26 -11 0 -20 5 -20 11 0 5 -5 7 -11 3 -8 -4 -8 -9 0 -17 14 -14 14 -30 1
-22 -6 4 -10 -6 -10 -23 0 -31 -32 -68 -50 -57 -6 4 -8 16 -4 27 5 18 3 19
-28 13 -39 -9 -58 -22 -58 -42 0 -10 -6 -13 -16 -9 -9 3 -22 6 -30 6 -9 0 -12
5 -9 10 3 6 2 10 -3 10 -6 0 -12 -6 -15 -13 -3 -7 -23 -19 -46 -27 -23 -7 -41
-19 -41 -26 0 -14 24 -9 47 8 21 17 26 -14 5 -35 -17 -17 -23 -18 -36 -7 -14
11 -16 -69 -16 -824 l0 -836 1060 0 1059 0 -14 43 c-7 23 -25 76 -39 117 -31
91 -31 95 -7 119 12 12 17 27 14 40 -5 20 -5 20 -22 -1 l-18 -21 -16 24 c-10
13 -17 36 -17 51 0 15 -4 29 -9 32 -5 3 -12 22 -16 42 -3 20 -12 50 -20 68 -7
17 -23 67 -35 111 -12 44 -29 96 -37 116 -8 19 -16 51 -17 71 -2 20 -13 46
-25 59 -11 12 -21 34 -21 48 0 14 -22 95 -49 181 -120 379 -129 417 -107 426
9 3 16 11 16 17 0 7 -4 7 -12 -1 -7 -7 -15 -12 -19 -12 -4 0 -28 42 -54 93
-64 126 -119 216 -152 252 -27 28 -28 35 -40 204 -7 97 -15 187 -18 201 l-6
24 21 -19 c12 -11 45 -49 74 -85 28 -35 66 -80 84 -100 17 -19 35 -43 38 -52
3 -10 10 -18 15 -18 5 0 9 -7 9 -15 0 -8 5 -15 10 -15 15 0 12 36 -5 50 -8 7
-14 18 -14 24 1 6 -4 25 -11 41 -7 17 -14 46 -15 65 -1 19 -12 57 -24 84 -12
26 -20 50 -17 53 2 3 -20 52 -50 111 -30 58 -57 124 -60 146 -3 24 3 83 16
141 12 55 21 108 21 118 -1 33 -4 47 -13 47 -4 0 -8 10 -8 23 0 21 -16 47 -30
47 -3 0 -11 -5 -16 -10z"/>
<path d="M813 2713 c-31 -6 -96 -70 -87 -85 6 -10 4 -10 -7 -2 -22 17 -82 27
-73 11 6 -8 3 -8 -9 1 -9 8 -22 10 -29 6 -16 -10 -66 -6 -90 7 -43 23 -8 -30
38 -58 18 -11 18 -11 -1 -10 -17 2 -20 -3 -17 -35 2 -30 -2 -39 -20 -50 -22
-12 -28 -14 -55 -17 -6 0 -15 -11 -19 -23 -6 -20 -8 -20 -19 -5 -15 20 -25 12
-25 -20 0 -13 -6 -23 -14 -23 -9 0 -12 11 -10 35 3 42 -21 49 -36 10 -5 -14
-17 -25 -28 -25 -16 0 -19 -6 -16 -42 1 -23 -2 -50 -7 -60 -5 -10 -6 -18 -1
-18 19 0 221 96 282 134 77 48 206 152 214 172 3 8 10 14 16 14 6 0 21 11 34
25 13 14 27 25 32 25 5 0 17 9 27 20 18 22 9 28 -12 8 -11 -10 -14 -10 -18 0
-5 12 -10 13 -50 5z"/>
<path d="M4569 2497 c-9 -17 -20 -30 -25 -27 -5 3 -8 8 -6 13 1 4 -1 7 -5 7
-20 -1 -32 -18 -35 -50 -2 -25 -8 -36 -23 -39 -19 -3 -55 -37 -55 -51 0 -9 40
-62 55 -72 5 -4 15 -8 22 -8 18 0 55 91 48 117 -3 13 -1 23 5 23 5 0 10 9 10
20 0 11 4 20 9 20 5 0 12 11 15 24 3 13 9 31 12 40 11 30 -11 16 -27 -17z"/>
</g>
</svg>
